<svg width="128" height="128" viewBox="0 0 128 128" fill="none" xmlns="http://www.w3.org/2000/svg">
<path d="M63.6667 117.667C74.9826 117.667 85.8351 113.171 93.8366 105.17C101.838 97.1682 106.333 86.3158 106.333 74.9999C106.333 42.9999 63.6667 10.9999 63.6667 10.9999C61.5974 24.2639 59.5707 31.3839 53.0001 42.9999C46.6001 40.0399 45.0001 37.6666 42.3334 30.9999C31.6667 42.9999 21.0001 58.9999 21.0001 74.9999C21.0001 86.3158 25.4953 97.1682 33.4968 105.17C41.4984 113.171 52.3508 117.667 63.6667 117.667Z" fill="url(#paint0_linear_92_2)"/>
<path d="M65.0427 60.7173L63.6667 57L62.2907 60.7173C60.488 65.592 59.5867 68.0293 57.8053 69.8107C56.0293 71.5867 53.592 72.488 48.7173 74.2907L45 75.6667L48.7173 77.0427C53.592 78.8453 56.0293 79.7467 57.8107 81.528C59.5867 83.304 60.488 85.7413 62.2907 90.616L63.6667 94.3333L65.0427 90.616C66.8453 85.7413 67.7467 83.304 69.528 81.5227C71.304 79.7467 73.7413 78.8453 78.616 77.0427L78.616 77.0427L82.3333 75.6667L78.616 74.2907C73.7413 72.488 71.304 71.5867 69.5227 69.8053C67.7467 68.0293 66.8453 65.592 65.0427 60.7173Z" fill="white" stroke="white" stroke-width="1.5" stroke-linecap="round" stroke-linejoin="round"/>
<defs>
<linearGradient id="paint0_linear_92_2" x1="63.6667" y1="10.9999" x2="63.6667" y2="117.667" gradientUnits="userSpaceOnUse">
<stop stop-color="#38BDF8"/>
<stop offset="1" stop-color="#0EA5E9"/>
</linearGradient>
</defs>
</svg>
